<svg xmlns="http://www.w3.org/2000/svg" width="1280" height="640" viewBox="0 0 1280 640">
 <defs>
  <linearGradient id="bg" x1="0" y1="0" x2="1" y2="1"><stop offset="0" stop-color="#0a0c14"/><stop offset="1" stop-color="#12101d"/></linearGradient>
  <radialGradient id="glow" cx="0.78" cy="0.4" r="0.6"><stop offset="0" stop-color="#7c5cff" stop-opacity="0.22"/><stop offset="1" stop-color="#7c5cff" stop-opacity="0"/></radialGradient>
  <linearGradient id="accent" x1="0" y1="0" x2="1" y2="1"><stop offset="0" stop-color="#9d7bff"/><stop offset="0.55" stop-color="#7c5cff"/><stop offset="1" stop-color="#3fc8d4"/></linearGradient>
  <linearGradient id="title" x1="0" y1="0" x2="1" y2="0.4"><stop offset="0" stop-color="#ffffff"/><stop offset="0.7" stop-color="#dcd8ee"/><stop offset="1" stop-color="#9a8fc0"/></linearGradient>
 </defs>
 <rect width="1280" height="640" fill="url(#bg)"/>
 <rect width="1280" height="640" fill="url(#glow)"/>
 <g><circle cx="1010" cy="250" r="54" fill="none" stroke="url(#accent)" stroke-width="3.0" opacity="0.50"/>
<circle cx="1010" cy="250" r="96" fill="none" stroke="url(#accent)" stroke-width="2.6" opacity="0.40"/>
<circle cx="1010" cy="250" r="140" fill="none" stroke="url(#accent)" stroke-width="2.2" opacity="0.30"/>
<circle cx="1010" cy="250" r="186" fill="none" stroke="url(#accent)" stroke-width="1.8" opacity="0.20"/>
<circle cx="1010" cy="250" r="30" fill="url(#accent)" opacity="0.95"/>
<rect x="1001" y="228" width="18" height="34" rx="9" fill="#0b0e16"/>
<rect x="1008.5" y="262" width="3" height="12" fill="#0b0e16"/>
<path d="M 995 252 a 15 15 0 0 0 30 0" fill="none" stroke="#0b0e16" stroke-width="3"/></g>
 <g><rect x="94.5" y="307.5" width="7.4" height="5.0" rx="3.7" fill="url(#accent)" opacity="0.40"/>
<rect x="106.8" y="299.7" width="7.4" height="20.5" rx="3.7" fill="url(#accent)" opacity="0.50"/>
<rect x="119.1" y="298.3" width="7.4" height="23.3" rx="3.7" fill="url(#accent)" opacity="0.56"/>
<rect x="131.4" y="301.5" width="7.4" height="17.1" rx="3.7" fill="url(#accent)" opacity="0.60"/>
<rect x="143.7" y="299.9" width="7.4" height="20.2" rx="3.7" fill="url(#accent)" opacity="0.64"/>
<rect x="156.0" y="293.4" width="7.4" height="33.2" rx="3.7" fill="url(#accent)" opacity="0.67"/>
<rect x="168.3" y="290.6" width="7.4" height="38.8" rx="3.7" fill="url(#accent)" opacity="0.70"/>
<rect x="180.6" y="292.3" width="7.4" height="35.5" rx="3.7" fill="url(#accent)" opacity="0.73"/>
<rect x="192.9" y="290.7" width="7.4" height="38.5" rx="3.7" fill="url(#accent)" opacity="0.75"/>
<rect x="205.2" y="285.2" width="7.4" height="49.6" rx="3.7" fill="url(#accent)" opacity="0.77"/>
<rect x="217.5" y="282.5" width="7.4" height="55.1" rx="3.7" fill="url(#accent)" opacity="0.80"/>
<rect x="229.8" y="282.9" width="7.4" height="54.3" rx="3.7" fill="url(#accent)" opacity="0.82"/>
<rect x="242.2" y="281.5" width="7.4" height="57.0" rx="3.7" fill="url(#accent)" opacity="0.83"/>
<rect x="254.5" y="280.6" width="7.4" height="58.9" rx="3.7" fill="url(#accent)" opacity="0.85"/>
<rect x="266.8" y="284.4" width="7.4" height="51.2" rx="3.7" fill="url(#accent)" opacity="0.87"/>
<rect x="279.1" y="285.6" width="7.4" height="48.8" rx="3.7" fill="url(#accent)" opacity="0.88"/>
<rect x="291.4" y="275.2" width="7.4" height="69.7" rx="3.7" fill="url(#accent)" opacity="0.89"/>
<rect x="303.7" y="262.7" width="7.4" height="94.6" rx="3.7" fill="url(#accent)" opacity="0.90"/>
<rect x="316.0" y="264.3" width="7.4" height="91.5" rx="3.7" fill="url(#accent)" opacity="0.91"/>
<rect x="328.3" y="273.9" width="7.4" height="72.2" rx="3.7" fill="url(#accent)" opacity="0.92"/>
<rect x="340.6" y="272.0" width="7.4" height="76.1" rx="3.7" fill="url(#accent)" opacity="0.93"/>
<rect x="352.9" y="260.5" width="7.4" height="99.0" rx="3.7" fill="url(#accent)" opacity="0.94"/>
<rect x="365.2" y="262.1" width="7.4" height="95.8" rx="3.7" fill="url(#accent)" opacity="0.94"/>
<rect x="377.5" y="280.4" width="7.4" height="59.1" rx="3.7" fill="url(#accent)" opacity="0.95"/>
<rect x="389.8" y="292.0" width="7.4" height="36.0" rx="3.7" fill="url(#accent)" opacity="0.95"/>
<rect x="402.2" y="284.2" width="7.4" height="51.7" rx="3.7" fill="url(#accent)" opacity="0.95"/>
<rect x="414.5" y="273.7" width="7.4" height="72.6" rx="3.7" fill="url(#accent)" opacity="0.95"/>
<rect x="426.8" y="276.0" width="7.4" height="68.1" rx="3.7" fill="url(#accent)" opacity="0.95"/>
<rect x="439.1" y="281.5" width="7.4" height="57.0" rx="3.7" fill="url(#accent)" opacity="0.95"/>
<rect x="451.4" y="277.8" width="7.4" height="64.4" rx="3.7" fill="url(#accent)" opacity="0.94"/>
<rect x="463.7" y="271.2" width="7.4" height="77.7" rx="3.7" fill="url(#accent)" opacity="0.94"/>
<rect x="476.0" y="271.6" width="7.4" height="76.8" rx="3.7" fill="url(#accent)" opacity="0.93"/>
<rect x="488.3" y="275.1" width="7.4" height="69.8" rx="3.7" fill="url(#accent)" opacity="0.92"/>
<rect x="500.6" y="275.7" width="7.4" height="68.6" rx="3.7" fill="url(#accent)" opacity="0.91"/>
<rect x="512.9" y="277.6" width="7.4" height="64.8" rx="3.7" fill="url(#accent)" opacity="0.90"/>
<rect x="525.2" y="282.3" width="7.4" height="55.3" rx="3.7" fill="url(#accent)" opacity="0.89"/>
<rect x="537.5" y="280.8" width="7.4" height="58.3" rx="3.7" fill="url(#accent)" opacity="0.88"/>
<rect x="549.8" y="271.1" width="7.4" height="77.8" rx="3.7" fill="url(#accent)" opacity="0.87"/>
<rect x="562.2" y="266.8" width="7.4" height="86.4" rx="3.7" fill="url(#accent)" opacity="0.85"/>
<rect x="574.5" y="275.2" width="7.4" height="69.6" rx="3.7" fill="url(#accent)" opacity="0.83"/>
<rect x="586.8" y="283.2" width="7.4" height="53.5" rx="3.7" fill="url(#accent)" opacity="0.82"/>
<rect x="599.1" y="280.1" width="7.4" height="59.9" rx="3.7" fill="url(#accent)" opacity="0.80"/>
<rect x="611.4" y="276.4" width="7.4" height="67.2" rx="3.7" fill="url(#accent)" opacity="0.77"/>
<rect x="623.7" y="285.1" width="7.4" height="49.8" rx="3.7" fill="url(#accent)" opacity="0.75"/>
<rect x="636.0" y="298.2" width="7.4" height="23.7" rx="3.7" fill="url(#accent)" opacity="0.73"/>
<rect x="648.3" y="300.7" width="7.4" height="18.7" rx="3.7" fill="url(#accent)" opacity="0.70"/>
<rect x="660.6" y="295.0" width="7.4" height="30.0" rx="3.7" fill="url(#accent)" opacity="0.67"/>
<rect x="672.9" y="293.6" width="7.4" height="32.7" rx="3.7" fill="url(#accent)" opacity="0.64"/>
<rect x="685.2" y="298.3" width="7.4" height="23.5" rx="3.7" fill="url(#accent)" opacity="0.60"/>
<rect x="697.5" y="301.6" width="7.4" height="16.8" rx="3.7" fill="url(#accent)" opacity="0.56"/>
<rect x="709.8" y="303.0" width="7.4" height="14.0" rx="3.7" fill="url(#accent)" opacity="0.50"/>
<rect x="722.2" y="307.5" width="7.4" height="5.0" rx="3.7" fill="url(#accent)" opacity="0.40"/></g>
 <text x="88" y="150" font-family="Noto Sans" font-weight="bold" font-size="118" fill="url(#title)" letter-spacing="-2">Zira</text>
 <text x="94" y="200" font-family="Noto Sans" font-size="31" fill="#b3aecb">A voice-driven coding helper, on Claude Code</text>
 <text x="94" y="408" font-family="Noto Sans" font-size="22" fill="#7d83a0">Pure-Rust harness  ·  emotion-tagged voice  ·  embodied avatar  ·  local memory</text>
 <g><rect x="92" y="468" width="220" height="46" rx="23" fill="#171a26" stroke="#2e3346" stroke-width="1.5"/>
<text x="202.0" y="498" font-family="Noto Sans" font-size="20" fill="#cdd3e6" text-anchor="middle">Voice + emotion</text></g><g><rect x="330" y="468" width="170" height="46" rx="23" fill="#171a26" stroke="#2e3346" stroke-width="1.5"/>
<text x="415.0" y="498" font-family="Noto Sans" font-size="20" fill="#cdd3e6" text-anchor="middle">VRM avatar</text></g><g><rect x="518" y="468" width="210" height="46" rx="23" fill="#171a26" stroke="#2e3346" stroke-width="1.5"/>
<text x="623.0" y="498" font-family="Noto Sans" font-size="20" fill="#cdd3e6" text-anchor="middle">On-disk memory</text></g><g><rect x="746" y="468" width="160" height="46" rx="23" fill="#171a26" stroke="#2e3346" stroke-width="1.5"/>
<text x="826.0" y="498" font-family="Noto Sans" font-size="20" fill="#cdd3e6" text-anchor="middle">CPU-first</text></g>
 <text x="92" y="598" font-family="Noto Sans" font-size="20" fill="#5c6280">voldiguarddevelopment</text>
 <text x="1188" y="598" font-family="Noto Sans" font-size="20" fill="#5c6280" text-anchor="end">built with Rust + Ratchet</text>
 <rect x="0" y="634" width="1280" height="6" fill="url(#accent)"/>
</svg>